<svg id="Layer_1" data-name="Layer 1" xmlns="http://www.w3.org/2000/svg" viewBox="0 0 454 100"><defs><style>.cls-1{fill:#e9ac7c;}.cls-2{fill:#e9ab7a;}</style></defs><title>Artboard 1logo</title><path class="cls-1" d="M38.22,49.17l5.56-13.06Q50.63,20,57.47,4c.42-1,.88-2,2.16-2s1.78.84,2.23,1.89c4.35,10.17,8.75,20.33,13.1,30.5Q83.75,55,92.5,75.57c2.72,6.38,5.41,12.78,8.16,19.14a2.26,2.26,0,0,1-.44,3,2.21,2.21,0,0,1-3.09,0Q87.43,90.49,77.7,83.4,65.15,74.25,52.6,65.09a1.48,1.48,0,0,0-2,0Q28.42,81.33,6.25,97.5c-1,.74-2,1.19-3.09.29a2.41,2.41,0,0,1-.57-3.18Q13.88,68.21,25.09,41.76c3.25-7.65,6.47-15.32,9.78-22.94a2.37,2.37,0,0,1,1.78-1.27A2.61,2.61,0,0,1,38.43,19a3.92,3.92,0,0,1-.16,2.6Q34.23,31.37,30,41c-.5,1.15-.6,1.85.65,2.66C33.21,45.36,35.59,47.25,38.22,49.17Zm55.07,40,.34.27L93.49,89c-.12-.36-.21-.73-.35-1.08Q86.26,71.69,79.36,55.51c-1.21-2.83-2.44-5.64-3.74-8.65L55.42,61.64c.53.43.84.71,1.18,1q14.85,10.84,29.7,21.66C88.59,85.93,91,87.51,93.28,89.14Zm-83.47.2c.36-.23.73-.44,1.08-.69L39.82,67.58l8.06-5.9L27.67,46.91a8,8,0,0,0-.42.71Q19.83,65,12.43,82.37c-1,2.26-1.82,4.57-2.72,6.87l-.06.26ZM41.73,51.73C44.89,54,47.9,56.26,51,58.4a1.75,1.75,0,0,0,1.56-.19c6.78-4.88,13.53-9.81,20.3-14.7a1.46,1.46,0,0,0,.54-2.13c-3.76-8.61-7.45-17.25-11.17-25.88-.8-1.85-1.6-3.69-2.55-5.86Z"/><path class="cls-2" d="M155.94,50.6h-2.57a1.13,1.13,0,0,1-.75-.24,1.61,1.61,0,0,1-.46-.64l-5.43-13.37H124.12l-5.4,13.37a1.4,1.4,0,0,1-.46.62,1.21,1.21,0,0,1-.78.26h-2.54l18.84-46h3.32ZM125.12,33.88h20.63l-9.4-23.26q-.23-.55-.46-1.25t-.46-1.48q-.23.78-.46,1.48t-.46,1.28Z"/><path class="cls-2" d="M163.22,50.6v-46h13.24a26.27,26.27,0,0,1,6.82.78A12.93,12.93,0,0,1,188,7.64a9.38,9.38,0,0,1,2.81,3.69,12.53,12.53,0,0,1,.93,4.95,9.93,9.93,0,0,1-.63,3.51,10.62,10.62,0,0,1-1.84,3.12,11.8,11.8,0,0,1-2.94,2.49,14.13,14.13,0,0,1-4,1.61,15,15,0,0,1,8.36,3.61A9.75,9.75,0,0,1,193.67,38a12.85,12.85,0,0,1-1,5.27,10.68,10.68,0,0,1-3,4,13.81,13.81,0,0,1-4.88,2.49,23,23,0,0,1-6.57.86Zm3.32-24.5h10a16.16,16.16,0,0,0,5.45-.81,10.77,10.77,0,0,0,3.71-2.15,8.33,8.33,0,0,0,2.13-3,9.21,9.21,0,0,0,.68-3.48q0-4.65-2.94-7T176.46,7.2h-9.92Zm0,2.44V47.93h11.55q6.08,0,9.18-2.62a9.13,9.13,0,0,0,3.09-7.37,9,9,0,0,0-.83-3.92,8.18,8.18,0,0,0-2.39-3,11.12,11.12,0,0,0-3.84-1.87,18.85,18.85,0,0,0-5.17-.65Z"/><path class="cls-2" d="M243.68,27.57a27.28,27.28,0,0,1-1.59,9.6,20.75,20.75,0,0,1-4.49,7.26A19.42,19.42,0,0,1,230.67,49a24.13,24.13,0,0,1-8.95,1.59H204.93v-46h16.79a24.16,24.16,0,0,1,8.95,1.59,19.45,19.45,0,0,1,6.93,4.59A20.75,20.75,0,0,1,242.09,18,27.18,27.18,0,0,1,243.68,27.57Zm-3.45,0A25.68,25.68,0,0,0,238.9,19a18.05,18.05,0,0,0-3.76-6.38,16,16,0,0,0-5.84-4,20.24,20.24,0,0,0-7.58-1.37H208.28V47.9h13.44a20.24,20.24,0,0,0,7.58-1.37,16,16,0,0,0,5.84-4,18.05,18.05,0,0,0,3.76-6.38A25.79,25.79,0,0,0,240.23,27.57Z"/><path class="cls-2" d="M271.4,48.23a14.57,14.57,0,0,0,5.94-1.15,12.73,12.73,0,0,0,4.44-3.2A14.1,14.1,0,0,0,284.56,39a18.29,18.29,0,0,0,1-6V4.56h3.32V33a20.6,20.6,0,0,1-1.2,7.11,17,17,0,0,1-3.46,5.76,16,16,0,0,1-5.5,3.86,19.59,19.59,0,0,1-14.54,0,16,16,0,0,1-5.5-3.86,17,17,0,0,1-3.46-5.76A20.6,20.6,0,0,1,254,33V4.56h3.35V33a18.29,18.29,0,0,0,1,6A14.25,14.25,0,0,0,261,43.83a12.75,12.75,0,0,0,4.42,3.22A14.41,14.41,0,0,0,271.4,48.23Z"/><path class="cls-2" d="M305.43,47.77h21.83V50.6H302.11v-46h3.32Z"/><path class="cls-2" d="M338.71,47.77h21.83V50.6H335.39v-46h3.32Z"/><path class="cls-2" d="M403.32,50.6h-2.57a1.13,1.13,0,0,1-.75-.24,1.61,1.61,0,0,1-.45-.64l-5.43-13.37H371.5l-5.4,13.37a1.4,1.4,0,0,1-.45.62,1.21,1.21,0,0,1-.78.26h-2.54l18.84-46h3.32ZM372.51,33.88h20.63l-9.4-23.26q-.23-.55-.45-1.25t-.46-1.48q-.23.78-.46,1.48t-.45,1.28Z"/><path class="cls-2" d="M446.14,50.6h-3.35V28.54H414V50.6h-3.35v-46H414V26h28.83V4.56h3.35Z"/><path class="cls-2" d="M121.63,93h-2.11V64h2.11Z"/><path class="cls-2" d="M145.79,93V64h8.35a16.58,16.58,0,0,1,4.3.49,8.15,8.15,0,0,1,3,1.45,5.91,5.91,0,0,1,1.77,2.33,7.9,7.9,0,0,1,.58,3.12,6.26,6.26,0,0,1-.4,2.22,6.69,6.69,0,0,1-1.16,2,7.44,7.44,0,0,1-1.86,1.57,8.89,8.89,0,0,1-2.51,1,9.44,9.44,0,0,1,5.27,2.28A6.14,6.14,0,0,1,165,85.1a8.1,8.1,0,0,1-.66,3.32,6.73,6.73,0,0,1-1.91,2.5,8.71,8.71,0,0,1-3.08,1.57,14.48,14.48,0,0,1-4.14.54Zm2.09-15.44h6.3a10.2,10.2,0,0,0,3.44-.51A6.78,6.78,0,0,0,160,75.73a5.26,5.26,0,0,0,1.34-1.91,5.8,5.8,0,0,0,.43-2.2,5.39,5.39,0,0,0-1.86-4.44q-1.86-1.51-5.73-1.51h-6.26Zm0,1.54V91.35h7.28q3.84,0,5.78-1.65a5.76,5.76,0,0,0,1.95-4.65,5.67,5.67,0,0,0-.52-2.47,5.17,5.17,0,0,0-1.51-1.87,7,7,0,0,0-2.42-1.18,11.89,11.89,0,0,0-3.26-.41Z"/><path class="cls-2" d="M188.33,64.08a1,1,0,0,1,.35.32l18.79,25.15a11.81,11.81,0,0,1-.06-1.19V64h1.85V93h-1a.88.88,0,0,1-.76-.41L188.62,67.44c0,.41.06.8.06,1.17V93h-1.83V64h1A1.17,1.17,0,0,1,188.33,64.08Z"/><path class="cls-2" d="M250,64v1.74H234.75V77.49h12.72v1.7H234.75v12.1H250V93H232.64V64Z"/><path class="cls-2" d="M338.86,93h-1.62a.7.7,0,0,1-.47-.15,1,1,0,0,1-.29-.4l-3.43-8.43H318.8l-3.41,8.43a.9.9,0,0,1-.29.39.76.76,0,0,1-.49.16H313l11.88-29H327ZM319.44,82.49h13l-5.93-14.66c-.1-.23-.19-.49-.29-.79s-.19-.61-.29-.93c-.1.33-.19.64-.29.93s-.19.56-.29.81Z"/><path class="cls-2" d="M374.82,64V65.8H364.62V93h-2.09V65.8H352.28V64Z"/><path class="cls-2" d="M397.48,93h-2.11V64h2.11Z"/><path class="cls-2" d="M447.53,78.51a18.58,18.58,0,0,1-.44,4.13,15.64,15.64,0,0,1-1.26,3.57,13,13,0,0,1-2,2.92,12.67,12.67,0,0,1-2.66,2.21l7.55,8.08H447a2.28,2.28,0,0,1-.74-.11,1.33,1.33,0,0,1-.57-.4l-6.19-6.69a14.74,14.74,0,0,1-2.73.82,15.52,15.52,0,0,1-3,.29,14.46,14.46,0,0,1-5.6-1.06,12.5,12.5,0,0,1-4.37-3,13.63,13.63,0,0,1-2.84-4.67,18.78,18.78,0,0,1,0-12.18,13.65,13.65,0,0,1,2.84-4.68,12.65,12.65,0,0,1,4.37-3,14.34,14.34,0,0,1,5.6-1.07,14.56,14.56,0,0,1,5.64,1.06,12.45,12.45,0,0,1,4.37,3,13.63,13.63,0,0,1,2.83,4.69A17.54,17.54,0,0,1,447.53,78.51Zm-2.17,0a16.6,16.6,0,0,0-.84-5.46,11.75,11.75,0,0,0-2.37-4.1,10.16,10.16,0,0,0-3.68-2.57,12.36,12.36,0,0,0-4.78-.89,12.18,12.18,0,0,0-4.73.89A10.37,10.37,0,0,0,425.26,69a11.65,11.65,0,0,0-2.4,4.1,17.92,17.92,0,0,0,0,10.92,11.69,11.69,0,0,0,2.4,4.09A10.28,10.28,0,0,0,429,90.64a12.33,12.33,0,0,0,4.73.88,12.51,12.51,0,0,0,4.78-.88,10.07,10.07,0,0,0,3.68-2.56A11.78,11.78,0,0,0,444.51,84,16.57,16.57,0,0,0,445.35,78.51Z"/></svg>